# xmcd CD database file
#
# Track frame offsets:
#	150
#	13565
#	28394
#	41243
#	55245
#	66174
#	80522
#	94727
#	109038
#	121150
#	134611
#	148148
#	160811
#	176590
#	190263
#	206128
#	218086
#	231568
#	245771
#	259273
#	273463
#
# Disc length: 3836 seconds
#
# Revision: 0
# Processed by: cddbd v1.5.2PL0 Copyright (c) Steve Scherf et al.
# Submitted via: CDex 1.51
#
DISCID=470efa15
DTITLE=Gracie Fields - The Clatter Of The Clogs
DYEAR=2001
DGENRE=Jazz
TTITLE0=Would A Manx Cat Wag Its Tail [Haines]
TTITLE1=I Took My Harp To A Party [Carter and Gay]
TTITLE2=In My Little Bedroom Drawer [Haines and Harper]
TTITLE3=What Can You Give A Nudist [LeClerq]
TTITLE4=The Punch And Judy Show [Black]
TTITLE5=They All Make Love But Me [Evans]
TTITLE6=Dancing With Tears In My Eyes [Dubin and Burke]
TTITLE7=I'm Playing With Fire [Berlin]
TTITLE8=We're Living At The Cloisters [Weston]
TTITLE9=Sally [Haines and Tower and Leon]
TTITLE10=Singin' In The Bathtub [Magidson-Washington-Cleary]
TTITLE11=The Clatter Of The Clogs [Flynn]
TTITLE12=Walter Walter [Haines and Harper and Butler]
TTITLE13=Because I Love You [Berlin]
TTITLE14=Fred Fannakapan [Low]
TTITLE15=I Lift Up My Finger And I Say 'Tweet Tweet' [Sarony]
TTITLE16=The Little Pudden Basin [Low]
TTITLE17=The Biggest Aspidistra In The World [Harper-Haines-Connor]
TTITLE18=Encore Number 1
TTITLE19=Encore Number 2
TTITLE20=Bonus Track
EXTD=YEAR: 2001
EXTT0=
EXTT1=
EXTT2=
EXTT3=
EXTT4=
EXTT5=
EXTT6=
EXTT7=
EXTT8=
EXTT9=
EXTT10=
EXTT11=
EXTT12=
EXTT13=
EXTT14=
EXTT15=
EXTT16=
EXTT17=
EXTT18=
EXTT19=
EXTT20=
PLAYORDER=
